<svg width="600" height="600" viewBox="0 0 600 600" fill="none" xmlns="http://www.w3.org/2000/svg">
<path d="M460 231.5L363.5 268.5V205L385.5 102.5C456.7 152.9 464.833 209.5 460 231.5Z" fill="url(#paint0_linear_19_13)" stroke="white" stroke-width="4"/>
<path d="M363.5 207L190 149.5C245.2 61.5 343 82.1667 385 103.5L363.5 207Z" fill="url(#paint1_linear_19_13)" stroke="white" stroke-width="4"/>
<path d="M303 291.5L360.5 376C451.5 342 465.333 263.333 464 229.5L370.5 266L303 291.5Z" fill="url(#paint2_linear_19_13)" stroke="white" stroke-width="4"/>
<path d="M265 236.5L173.5 297C227.1 395.8 321.5 390.667 361 376L265 236.5Z" fill="url(#paint3_linear_19_13)" stroke="white" stroke-width="4"/>
<path d="M297.5 186.5L263 237.5C264 237.5 247.3 249 172.5 297C144.9 233.4 170 171.5 186 148.5L297.5 186.5Z" fill="url(#paint4_linear_19_13)" stroke="white" stroke-width="4"/>
<path d="M297.5 187L264 237.5L301.5 292L363.5 268V207.5L297.5 187Z" fill="white"/>
<circle cx="311" cy="235" r="151" stroke="white" stroke-width="10"/>
<path d="M290.844 445.234C291.5 445.344 291.992 445.398 292.32 445.398C292.648 445.398 292.969 445.367 293.281 445.305C293.609 445.227 293.898 445.109 294.148 444.953C294.711 444.609 294.992 444.07 294.992 443.336C294.992 442.727 294.805 442.047 294.43 441.297L292.227 435.836H277.391L274.766 442.492C274.516 443.102 274.391 443.547 274.391 443.828C274.391 444.094 274.43 444.297 274.508 444.438C274.602 444.562 274.734 444.672 274.906 444.766C275.094 444.859 275.32 444.938 275.586 445L276.547 445.258C277.578 445.43 278.242 445.586 278.539 445.727C279.148 446.023 279.453 446.461 279.453 447.039C279.453 447.461 279.336 447.82 279.102 448.117C278.805 448.039 278.531 448 278.281 448H268.742C266.664 448 265.625 447.43 265.625 446.289C265.625 445.758 265.742 445.328 265.977 445C266.555 445.156 267.039 445.234 267.43 445.234C267.836 445.234 268.172 445.172 268.438 445.047C268.719 444.922 268.984 444.711 269.234 444.414C269.656 443.898 270.148 442.867 270.711 441.32L282.289 413.289C282.617 412.539 283.547 412.023 285.078 411.742C285.5 411.664 285.945 411.625 286.414 411.625C287.367 411.625 287.953 411.883 288.172 412.398L290.516 418.258C295.031 428.914 297.641 435.133 298.344 436.914L300.453 442.445C300.875 443.648 301.227 444.391 301.508 444.672C301.789 444.953 302.094 445.148 302.422 445.258C302.75 445.367 303.086 445.461 303.43 445.539C303.789 445.602 304.102 445.688 304.367 445.797C304.961 446.062 305.258 446.469 305.258 447.016C305.258 447.438 305.141 447.797 304.906 448.094C304.609 448.016 304.344 447.977 304.109 447.977H292.93C292.133 447.977 291.508 447.883 291.055 447.695C290.617 447.492 290.398 447.188 290.398 446.781C290.398 446.078 290.547 445.562 290.844 445.234ZM290.867 432.508L284.727 417.32L278.703 432.508H290.867ZM331.531 422.219C331.594 421.781 331.625 421.141 331.625 420.297C331.625 419.453 331.461 418.688 331.133 418C330.805 417.297 330.359 416.75 329.797 416.359C328.812 415.688 327.328 415.352 325.344 415.352C323.375 415.352 321.633 415.711 320.117 416.43C318.617 417.133 317.359 418.125 316.344 419.406C314.297 421.984 313.273 425.492 313.273 429.93C313.273 434.133 314.312 437.484 316.391 439.984C318.547 442.594 321.461 443.898 325.133 443.898C328.742 443.898 331.555 443.109 333.57 441.531C334.18 441.062 334.734 440.555 335.234 440.008C335.703 440.148 336.086 440.562 336.383 441.25C336.477 441.484 336.523 441.797 336.523 442.188C336.523 442.562 336.242 443.125 335.68 443.875C335.133 444.609 334.328 445.32 333.266 446.008C330.734 447.664 327.703 448.492 324.172 448.492C319.109 448.492 315.078 446.953 312.078 443.875C309.109 440.859 307.625 436.82 307.625 431.758C307.625 428.664 308.117 425.875 309.102 423.391C310.086 420.906 311.43 418.797 313.133 417.062C314.836 415.312 316.82 413.969 319.086 413.031C321.367 412.094 323.578 411.625 325.719 411.625C327.875 411.625 329.602 411.805 330.898 412.164C332.195 412.523 333.273 413.016 334.133 413.641C335.852 414.922 336.711 416.625 336.711 418.75C336.711 420.375 336.109 421.523 334.906 422.195C334.5 422.43 334.062 422.547 333.594 422.547C332.625 422.547 331.938 422.438 331.531 422.219ZM370.859 440.711C370.859 444.227 370.391 446.656 369.453 448H343.883C342.648 448 341.797 447.688 341.328 447.062C341.172 446.844 341.094 446.602 341.094 446.336C341.094 445.742 341.219 445.289 341.469 444.977C342 445.133 342.695 445.211 343.555 445.211C345.477 445.211 346.438 444.031 346.438 441.672V417.602C346.438 416.523 345.984 415.797 345.078 415.422C344.812 415.297 344.484 415.18 344.094 415.07L342.922 414.766C342.172 414.578 341.703 414.352 341.516 414.086C341.344 413.805 341.258 413.523 341.258 413.242C341.258 412.648 341.383 412.195 341.633 411.883C341.992 412.008 342.766 412.07 343.953 412.07H354.172C354.984 412.07 355.633 412.203 356.117 412.469C356.602 412.719 356.844 413.188 356.844 413.875C356.844 414.406 356.727 414.805 356.492 415.07C355.898 414.914 355.328 414.836 354.781 414.836C354.25 414.836 353.828 414.898 353.516 415.023C353.219 415.133 352.953 415.328 352.719 415.609C352.25 416.203 352 417.18 351.969 418.539V442.234C352 443.328 352.32 444.062 352.93 444.438C353.445 444.766 354.391 444.93 355.766 444.93L357.523 444.906L359.539 444.883C362.945 444.883 365.172 444.125 366.219 442.609C366.734 441.859 367.078 440.922 367.25 439.797C367.438 438.656 367.602 437.336 367.742 435.836C367.992 435.68 368.328 435.602 368.75 435.602C369.547 435.602 370.086 435.695 370.367 435.883C370.695 437.164 370.859 438.773 370.859 440.711Z" fill="white"/>
<path d="M151.836 506.305C151.625 504.992 151.695 503.656 152.047 502.297C152.375 500.961 152.82 499.625 153.383 498.289C153.922 496.953 154.473 495.617 155.035 494.281C155.598 492.969 155.984 491.68 156.195 490.414C156.195 490.367 156.289 490.227 156.477 489.992C156.688 489.758 156.91 489.512 157.145 489.254C157.402 488.973 157.625 488.715 157.812 488.48C158.023 488.223 158.141 488.07 158.164 488.023C158.539 487.203 158.914 486.453 159.289 485.773C159.688 485.07 159.992 484.391 160.203 483.734C160.414 483.078 160.508 482.434 160.484 481.801C160.461 481.145 160.227 480.441 159.781 479.691C159.734 479.645 159.711 479.574 159.711 479.48C159.711 479.387 159.734 479.328 159.781 479.305C160.461 478.438 161.246 477.711 162.137 477.125C163.027 476.539 163.977 476.07 164.984 475.719C165.992 475.367 167.035 475.133 168.113 475.016C169.191 474.898 170.258 474.875 171.312 474.945C172.203 475.695 172.766 476.551 173 477.512C173.258 478.449 173.27 479.434 173.035 480.465C172.824 481.473 172.414 482.492 171.805 483.523C171.219 484.555 170.539 485.516 169.766 486.406C168.992 487.297 168.172 488.094 167.305 488.797C166.461 489.5 165.664 490.039 164.914 490.414C164.234 490.742 163.73 490.965 163.402 491.082C163.098 491.176 162.793 491.234 162.488 491.258C162.184 491.281 161.809 491.305 161.363 491.328C160.941 491.352 160.285 491.445 159.395 491.609C158.996 491.68 158.656 491.867 158.375 492.172C158.117 492.453 157.895 492.781 157.707 493.156C157.543 493.508 157.402 493.871 157.285 494.246C157.191 494.645 157.098 494.961 157.004 495.195C156.582 496.227 156.195 497.176 155.844 498.043C155.516 498.934 155.199 499.801 154.895 500.645C154.566 501.512 154.25 502.402 153.945 503.316C153.641 504.23 153.324 505.227 152.996 506.305C152.949 506.422 152.867 506.516 152.75 506.586C152.633 506.68 152.516 506.727 152.398 506.727C152.258 506.75 152.141 506.727 152.047 506.656C151.93 506.609 151.859 506.492 151.836 506.305ZM159.781 490.027C160.859 490.238 161.902 490.18 162.91 489.852C163.941 489.523 164.902 489.02 165.793 488.34C166.684 487.637 167.48 486.805 168.184 485.844C168.91 484.859 169.52 483.828 170.012 482.75C170.504 481.672 170.867 480.594 171.102 479.516C171.336 478.414 171.406 477.406 171.312 476.492C170.984 476.211 170.586 476.07 170.117 476.07C169.672 476.047 169.273 476.059 168.922 476.105C167.656 476.27 166.66 476.598 165.934 477.09C165.207 477.559 164.609 478.156 164.141 478.883C163.695 479.609 163.309 480.453 162.98 481.414C162.652 482.352 162.254 483.371 161.785 484.473C161.691 484.637 161.551 484.93 161.363 485.352C161.176 485.75 160.977 486.184 160.766 486.652C160.555 487.098 160.355 487.531 160.168 487.953C159.98 488.375 159.852 488.668 159.781 488.832V490.027ZM174.441 493.191C174.418 493.145 174.406 493.086 174.406 493.016C174.406 492.922 174.418 492.852 174.441 492.805C174.535 492.617 174.688 492.301 174.898 491.855C175.133 491.387 175.367 490.906 175.602 490.414C175.859 489.898 176.105 489.418 176.34 488.973C176.574 488.527 176.738 488.211 176.832 488.023C176.879 487.953 176.996 487.754 177.184 487.426C177.395 487.098 177.641 486.699 177.922 486.23C178.227 485.738 178.543 485.199 178.871 484.613C179.223 484.027 179.562 483.453 179.891 482.891C180.242 482.328 180.559 481.801 180.84 481.309C181.145 480.816 181.391 480.406 181.578 480.078C182.047 479.305 182.586 478.391 183.195 477.336C183.828 476.281 184.473 475.215 185.129 474.137C185.785 473.059 186.43 472.016 187.062 471.008C187.719 470 188.316 469.168 188.855 468.512C189.395 467.855 189.852 467.422 190.227 467.211C190.602 467 190.859 467.141 191 467.633V468.758C190.836 469.016 190.613 469.355 190.332 469.777C190.051 470.176 189.758 470.609 189.453 471.078C189.172 471.523 188.891 471.957 188.609 472.379C188.328 472.801 188.117 473.129 187.977 473.363C187.766 473.691 187.426 474.219 186.957 474.945C186.488 475.672 185.961 476.492 185.375 477.406C184.789 478.32 184.191 479.281 183.582 480.289C182.973 481.273 182.422 482.199 181.93 483.066C181.438 483.934 181.039 484.684 180.734 485.316C180.453 485.926 180.348 486.312 180.418 486.477C180.98 486.312 181.578 486.02 182.211 485.598C182.867 485.152 183.523 484.684 184.18 484.191C184.836 483.699 185.492 483.23 186.148 482.785C186.805 482.316 187.414 481.953 187.977 481.695C188.539 481.766 189.031 481.977 189.453 482.328C189.875 482.68 190.18 483.125 190.367 483.664C190.344 483.875 190.32 484.273 190.297 484.859C190.297 485.422 190.297 486.02 190.297 486.652C190.297 487.285 190.297 487.883 190.297 488.445C190.32 489.008 190.344 489.395 190.367 489.605C190.391 489.863 190.508 490.191 190.719 490.59C190.93 490.965 191.152 491.352 191.387 491.75C191.645 492.125 191.867 492.453 192.055 492.734C192.266 493.016 192.359 493.168 192.336 493.191C191.867 493.355 191.422 493.367 191 493.227C190.578 493.062 190.203 492.816 189.875 492.488C189.57 492.137 189.312 491.75 189.102 491.328C188.914 490.883 188.797 490.449 188.75 490.027C188.727 489.816 188.691 489.43 188.645 488.867C188.598 488.281 188.551 487.672 188.504 487.039C188.48 486.406 188.445 485.809 188.398 485.246C188.375 484.684 188.363 484.297 188.363 484.086L187.555 483.664C187.414 483.594 187.168 483.652 186.816 483.84C186.488 484.027 186.102 484.285 185.656 484.613C185.211 484.941 184.742 485.316 184.25 485.738C183.758 486.16 183.289 486.559 182.844 486.934C182.422 487.309 182.059 487.637 181.754 487.918C181.449 488.199 181.262 488.375 181.191 488.445C181.004 488.633 180.664 488.973 180.172 489.465C179.68 489.934 179.152 490.449 178.59 491.012C178.051 491.551 177.535 492.066 177.043 492.559C176.574 493.051 176.246 493.402 176.059 493.613C175.73 493.684 175.414 493.719 175.109 493.719C174.828 493.695 174.605 493.52 174.441 493.191ZM196.309 493.613C195.324 493.215 194.703 492.617 194.445 491.82C194.211 491.023 194.223 490.145 194.48 489.184C194.738 488.199 195.184 487.191 195.816 486.16C196.449 485.105 197.152 484.145 197.926 483.277C198.699 482.41 199.473 481.684 200.246 481.098C201.043 480.488 201.723 480.148 202.285 480.078C203.738 479.891 204.875 479.996 205.695 480.395C206.539 480.77 207.113 481.32 207.418 482.047C207.723 482.773 207.805 483.629 207.664 484.613C207.523 485.574 207.207 486.547 206.715 487.531C206.246 488.516 205.625 489.465 204.852 490.379C204.102 491.293 203.258 492.066 202.32 492.699C201.406 493.309 200.434 493.719 199.402 493.93C198.371 494.117 197.34 494.012 196.309 493.613ZM195.922 491.609C196.109 492.359 196.508 492.781 197.117 492.875C197.727 492.945 198.43 492.793 199.227 492.418C200.047 492.02 200.902 491.457 201.793 490.73C202.684 489.98 203.492 489.172 204.219 488.305C204.969 487.438 205.578 486.57 206.047 485.703C206.539 484.812 206.773 484.039 206.75 483.383C206.75 482.727 206.434 482.234 205.801 481.906C205.191 481.555 204.16 481.484 202.707 481.695C202.379 482 201.957 482.375 201.441 482.82C200.926 483.242 200.387 483.711 199.824 484.227C199.285 484.742 198.746 485.305 198.207 485.914C197.668 486.5 197.199 487.109 196.801 487.742C196.402 488.375 196.109 489.02 195.922 489.676C195.758 490.332 195.758 490.977 195.922 491.609ZM211.848 493.613C211.824 493.566 211.812 493.438 211.812 493.227C211.812 493.016 211.824 492.875 211.848 492.805C211.918 492.547 212.047 492.102 212.234 491.469C212.422 490.812 212.621 490.133 212.832 489.43C213.043 488.703 213.242 488.023 213.43 487.391C213.617 486.758 213.746 486.312 213.816 486.055C213.91 485.727 214.016 485.352 214.133 484.93C214.25 484.484 214.273 484.062 214.203 483.664C213.852 483.617 213.418 483.664 212.902 483.805C212.387 483.922 211.871 484.027 211.355 484.121C210.863 484.191 210.395 484.191 209.949 484.121C209.527 484.027 209.223 483.746 209.035 483.277C209.316 482.691 209.738 482.316 210.301 482.152C210.863 481.965 211.473 481.836 212.129 481.766C212.785 481.695 213.406 481.59 213.992 481.449C214.602 481.309 215.082 480.992 215.434 480.5C215.645 479.891 215.891 479.152 216.172 478.285C216.477 477.395 216.793 476.469 217.121 475.508C217.449 474.547 217.801 473.598 218.176 472.66C218.574 471.723 218.984 470.891 219.406 470.164C219.664 470 219.875 469.988 220.039 470.129C220.203 470.27 220.32 470.48 220.391 470.762C220.484 471.02 220.543 471.289 220.566 471.57C220.59 471.852 220.59 472.039 220.566 472.133C220.426 472.742 220.18 473.398 219.828 474.102C219.5 474.781 219.184 475.473 218.879 476.176C218.598 476.879 218.363 477.582 218.176 478.285C218.012 478.988 218.012 479.656 218.176 480.289H225.734C225.758 480.289 225.816 480.371 225.91 480.535C226.004 480.676 226.086 480.793 226.156 480.887C226.273 481.215 226.145 481.438 225.77 481.555C225.395 481.672 224.891 481.754 224.258 481.801C223.625 481.824 222.898 481.848 222.078 481.871C221.281 481.871 220.508 481.93 219.758 482.047C219.031 482.141 218.375 482.316 217.789 482.574C217.203 482.809 216.805 483.172 216.594 483.664C215.984 485.234 215.422 486.816 214.906 488.41C214.391 489.98 213.898 491.574 213.43 493.191C213.383 493.262 213.289 493.379 213.148 493.543C213.008 493.684 212.855 493.812 212.691 493.93C212.527 494.023 212.363 494.059 212.199 494.035C212.059 494.012 211.941 493.871 211.848 493.613ZM226.543 493.613C225.559 493.215 224.938 492.617 224.68 491.82C224.445 491.023 224.457 490.145 224.715 489.184C224.973 488.199 225.418 487.191 226.051 486.16C226.684 485.105 227.387 484.145 228.16 483.277C228.934 482.41 229.707 481.684 230.48 481.098C231.277 480.488 231.957 480.148 232.52 480.078C233.973 479.891 235.109 479.996 235.93 480.395C236.773 480.77 237.348 481.32 237.652 482.047C237.957 482.773 238.039 483.629 237.898 484.613C237.758 485.574 237.441 486.547 236.949 487.531C236.48 488.516 235.859 489.465 235.086 490.379C234.336 491.293 233.492 492.066 232.555 492.699C231.641 493.309 230.668 493.719 229.637 493.93C228.605 494.117 227.574 494.012 226.543 493.613ZM226.156 491.609C226.344 492.359 226.742 492.781 227.352 492.875C227.961 492.945 228.664 492.793 229.461 492.418C230.281 492.02 231.137 491.457 232.027 490.73C232.918 489.98 233.727 489.172 234.453 488.305C235.203 487.438 235.812 486.57 236.281 485.703C236.773 484.812 237.008 484.039 236.984 483.383C236.984 482.727 236.668 482.234 236.035 481.906C235.426 481.555 234.395 481.484 232.941 481.695C232.613 482 232.191 482.375 231.676 482.82C231.16 483.242 230.621 483.711 230.059 484.227C229.52 484.742 228.98 485.305 228.441 485.914C227.902 486.5 227.434 487.109 227.035 487.742C226.637 488.375 226.344 489.02 226.156 489.676C225.992 490.332 225.992 490.977 226.156 491.609ZM234.137 503.914C233.41 503.656 232.824 503.27 232.379 502.754C231.91 502.238 231.559 501.676 231.324 501.066C231.066 500.48 230.914 499.883 230.867 499.273C230.797 498.664 230.809 498.125 230.902 497.656C230.973 497.188 231.113 496.824 231.324 496.566C231.512 496.332 231.734 496.273 231.992 496.391C231.969 498.43 232.215 499.965 232.73 500.996C233.223 502.051 233.879 502.707 234.699 502.965C235.496 503.246 236.41 503.188 237.441 502.789C238.449 502.391 239.469 501.77 240.5 500.926C241.555 500.105 242.551 499.109 243.488 497.938C244.449 496.789 245.258 495.582 245.914 494.316C246.57 493.074 247.039 491.844 247.32 490.625C247.602 489.383 247.59 488.258 247.285 487.25C245.176 488.773 243.535 489.734 242.363 490.133C241.191 490.531 240.371 490.555 239.902 490.203C239.457 489.828 239.316 489.172 239.48 488.234C239.645 487.297 239.996 486.266 240.535 485.141C241.074 484.016 241.754 482.891 242.574 481.766C243.395 480.617 244.238 479.656 245.105 478.883C245.973 478.109 246.805 477.617 247.602 477.406C248.422 477.195 249.102 477.441 249.641 478.145C250.18 478.871 250.52 479.855 250.66 481.098C250.801 482.316 250.766 483.676 250.555 485.176C250.344 486.676 249.969 488.246 249.43 489.887C248.914 491.527 248.27 493.121 247.496 494.668C246.723 496.238 245.832 497.691 244.824 499.027C243.84 500.363 242.773 501.477 241.625 502.367C240.477 503.258 239.27 503.855 238.004 504.16C236.738 504.488 235.449 504.406 234.137 503.914ZM241.309 486.477C241.285 486.547 241.262 486.676 241.238 486.863C241.238 487.051 241.238 487.25 241.238 487.461C241.238 487.672 241.238 487.871 241.238 488.059C241.262 488.246 241.285 488.375 241.309 488.445C242.059 488.633 242.832 488.457 243.629 487.918C244.426 487.379 245.152 486.688 245.809 485.844C246.488 485 247.051 484.109 247.496 483.172C247.965 482.234 248.246 481.449 248.34 480.816C248.457 480.184 248.34 479.832 247.988 479.762C247.637 479.668 246.992 480.043 246.055 480.887C245.773 481.145 245.398 481.496 244.93 481.941C244.461 482.387 243.98 482.867 243.488 483.383C243.02 483.898 242.574 484.438 242.152 485C241.754 485.539 241.473 486.031 241.309 486.477ZM252.629 493.613C252.582 493.59 252.582 493.32 252.629 492.805C252.699 492.266 252.793 491.598 252.91 490.801C253.027 490.004 253.18 489.125 253.367 488.164C253.555 487.203 253.754 486.289 253.965 485.422C254.176 484.531 254.398 483.758 254.633 483.102C254.891 482.422 255.137 481.953 255.371 481.695C255.535 481.531 255.699 481.531 255.863 481.695C256.027 481.836 256.191 482.023 256.355 482.258C256.52 482.469 256.684 482.668 256.848 482.855C257.012 483.02 257.188 483.031 257.375 482.891C258.031 481.977 258.746 481.109 259.52 480.289C260.316 479.445 261.195 478.719 262.156 478.109C262.25 478.039 262.508 477.934 262.93 477.793C263.352 477.629 263.832 477.477 264.371 477.336C264.91 477.172 265.461 477.043 266.023 476.949C266.609 476.832 267.102 476.785 267.5 476.809C267.922 476.809 268.203 476.914 268.344 477.125C268.508 477.312 268.438 477.641 268.133 478.109C266.727 478.133 265.414 478.543 264.195 479.34C262.977 480.137 261.852 481.121 260.82 482.293C259.789 483.465 258.852 484.742 258.008 486.125C257.164 487.484 256.426 488.75 255.793 489.922C255.184 491.094 254.668 492.066 254.246 492.84C253.848 493.613 253.555 494 253.367 494C253.344 494 253.238 493.953 253.051 493.859C252.863 493.742 252.723 493.66 252.629 493.613ZM270.699 493.191C270.137 492.723 269.82 492.031 269.75 491.117C269.703 490.203 269.832 489.172 270.137 488.023C270.465 486.875 270.934 485.68 271.543 484.438C272.176 483.172 272.902 481.977 273.723 480.852C274.543 479.703 275.434 478.684 276.395 477.793C277.355 476.879 278.316 476.211 279.277 475.789C280.238 475.344 281.176 475.191 282.09 475.332C283.004 475.449 283.836 475.977 284.586 476.914C285.055 477.5 285.336 478.098 285.43 478.707C285.523 479.293 285.512 479.902 285.395 480.535C285.277 481.145 285.09 481.777 284.832 482.434C284.574 483.066 284.316 483.711 284.059 484.367C283.824 485.023 283.625 485.691 283.461 486.371C283.32 487.051 283.297 487.742 283.391 488.445C283.508 489.336 283.906 489.863 284.586 490.027C285.266 490.191 286.074 490.145 287.012 489.887C287.973 489.629 288.98 489.219 290.035 488.656C291.09 488.094 292.062 487.531 292.953 486.969C293.867 486.406 294.617 485.914 295.203 485.492C295.812 485.07 296.117 484.859 296.117 484.859C296.773 484.719 297.137 484.766 297.207 485C297.301 485.211 297.172 485.539 296.82 485.984C296.492 486.406 295.988 486.898 295.309 487.461C294.629 488 293.855 488.527 292.988 489.043C292.121 489.559 291.195 490.027 290.211 490.449C289.227 490.871 288.266 491.164 287.328 491.328C286.391 491.469 285.5 491.457 284.656 491.293C283.836 491.105 283.156 490.684 282.617 490.027C282.359 489.746 282.16 489.465 282.02 489.184C281.902 488.902 281.703 488.656 281.422 488.445C281.07 488.773 280.648 489.207 280.156 489.746C279.664 490.262 279.125 490.789 278.539 491.328C277.977 491.844 277.367 492.336 276.711 492.805C276.078 493.273 275.422 493.625 274.742 493.859C274.062 494.094 273.371 494.176 272.668 494.105C271.988 494.035 271.332 493.73 270.699 493.191ZM271.086 491.996C271.297 492.746 271.766 493.098 272.492 493.051C273.219 492.98 274.062 492.617 275.023 491.961C275.984 491.305 276.98 490.414 278.012 489.289C279.043 488.141 279.969 486.875 280.789 485.492C281.609 484.086 282.23 482.609 282.652 481.062C283.098 479.516 283.215 477.992 283.004 476.492C282.441 476.047 281.738 476.035 280.895 476.457C280.051 476.855 279.148 477.523 278.188 478.461C277.25 479.375 276.312 480.477 275.375 481.766C274.461 483.031 273.652 484.32 272.949 485.633C272.246 486.922 271.707 488.141 271.332 489.289C270.98 490.438 270.898 491.34 271.086 491.996ZM290.211 506.305C290 504.992 290.07 503.656 290.422 502.297C290.75 500.961 291.195 499.625 291.758 498.289C292.297 496.953 292.848 495.617 293.41 494.281C293.973 492.969 294.359 491.68 294.57 490.414C294.57 490.367 294.664 490.227 294.852 489.992C295.062 489.758 295.285 489.512 295.52 489.254C295.777 488.973 296 488.715 296.188 488.48C296.398 488.223 296.516 488.07 296.539 488.023C296.914 487.203 297.289 486.453 297.664 485.773C298.062 485.07 298.367 484.391 298.578 483.734C298.789 483.078 298.883 482.434 298.859 481.801C298.836 481.145 298.602 480.441 298.156 479.691C298.109 479.645 298.086 479.574 298.086 479.48C298.086 479.387 298.109 479.328 298.156 479.305C298.836 478.438 299.621 477.711 300.512 477.125C301.402 476.539 302.352 476.07 303.359 475.719C304.367 475.367 305.41 475.133 306.488 475.016C307.566 474.898 308.633 474.875 309.688 474.945C310.578 475.695 311.141 476.551 311.375 477.512C311.633 478.449 311.645 479.434 311.41 480.465C311.199 481.473 310.789 482.492 310.18 483.523C309.594 484.555 308.914 485.516 308.141 486.406C307.367 487.297 306.547 488.094 305.68 488.797C304.836 489.5 304.039 490.039 303.289 490.414C302.609 490.742 302.105 490.965 301.777 491.082C301.473 491.176 301.168 491.234 300.863 491.258C300.559 491.281 300.184 491.305 299.738 491.328C299.316 491.352 298.66 491.445 297.77 491.609C297.371 491.68 297.031 491.867 296.75 492.172C296.492 492.453 296.27 492.781 296.082 493.156C295.918 493.508 295.777 493.871 295.66 494.246C295.566 494.645 295.473 494.961 295.379 495.195C294.957 496.227 294.57 497.176 294.219 498.043C293.891 498.934 293.574 499.801 293.27 500.645C292.941 501.512 292.625 502.402 292.32 503.316C292.016 504.23 291.699 505.227 291.371 506.305C291.324 506.422 291.242 506.516 291.125 506.586C291.008 506.68 290.891 506.727 290.773 506.727C290.633 506.75 290.516 506.727 290.422 506.656C290.305 506.609 290.234 506.492 290.211 506.305ZM298.156 490.027C299.234 490.238 300.277 490.18 301.285 489.852C302.316 489.523 303.277 489.02 304.168 488.34C305.059 487.637 305.855 486.805 306.559 485.844C307.285 484.859 307.895 483.828 308.387 482.75C308.879 481.672 309.242 480.594 309.477 479.516C309.711 478.414 309.781 477.406 309.688 476.492C309.359 476.211 308.961 476.07 308.492 476.07C308.047 476.047 307.648 476.059 307.297 476.105C306.031 476.27 305.035 476.598 304.309 477.09C303.582 477.559 302.984 478.156 302.516 478.883C302.07 479.609 301.684 480.453 301.355 481.414C301.027 482.352 300.629 483.371 300.16 484.473C300.066 484.637 299.926 484.93 299.738 485.352C299.551 485.75 299.352 486.184 299.141 486.652C298.93 487.098 298.73 487.531 298.543 487.953C298.355 488.375 298.227 488.668 298.156 488.832V490.027ZM312.816 493.191C312.793 493.145 312.781 493.086 312.781 493.016C312.781 492.922 312.793 492.852 312.816 492.805C312.91 492.617 313.062 492.301 313.273 491.855C313.508 491.387 313.742 490.906 313.977 490.414C314.234 489.898 314.48 489.418 314.715 488.973C314.949 488.527 315.113 488.211 315.207 488.023C315.254 487.953 315.371 487.754 315.559 487.426C315.77 487.098 316.016 486.699 316.297 486.23C316.602 485.738 316.918 485.199 317.246 484.613C317.598 484.027 317.938 483.453 318.266 482.891C318.617 482.328 318.934 481.801 319.215 481.309C319.52 480.816 319.766 480.406 319.953 480.078C320.422 479.305 320.961 478.391 321.57 477.336C322.203 476.281 322.848 475.215 323.504 474.137C324.16 473.059 324.805 472.016 325.438 471.008C326.094 470 326.691 469.168 327.23 468.512C327.77 467.855 328.227 467.422 328.602 467.211C328.977 467 329.234 467.141 329.375 467.633V468.758C329.211 469.016 328.988 469.355 328.707 469.777C328.426 470.176 328.133 470.609 327.828 471.078C327.547 471.523 327.266 471.957 326.984 472.379C326.703 472.801 326.492 473.129 326.352 473.363C326.141 473.691 325.801 474.219 325.332 474.945C324.863 475.672 324.336 476.492 323.75 477.406C323.164 478.32 322.566 479.281 321.957 480.289C321.348 481.273 320.797 482.199 320.305 483.066C319.812 483.934 319.414 484.684 319.109 485.316C318.828 485.926 318.723 486.312 318.793 486.477C319.355 486.312 319.953 486.02 320.586 485.598C321.242 485.152 321.898 484.684 322.555 484.191C323.211 483.699 323.867 483.23 324.523 482.785C325.18 482.316 325.789 481.953 326.352 481.695C326.914 481.766 327.406 481.977 327.828 482.328C328.25 482.68 328.555 483.125 328.742 483.664C328.719 483.875 328.695 484.273 328.672 484.859C328.672 485.422 328.672 486.02 328.672 486.652C328.672 487.285 328.672 487.883 328.672 488.445C328.695 489.008 328.719 489.395 328.742 489.605C328.766 489.863 328.883 490.191 329.094 490.59C329.305 490.965 329.527 491.352 329.762 491.75C330.02 492.125 330.242 492.453 330.43 492.734C330.641 493.016 330.734 493.168 330.711 493.191C330.242 493.355 329.797 493.367 329.375 493.227C328.953 493.062 328.578 492.816 328.25 492.488C327.945 492.137 327.688 491.75 327.477 491.328C327.289 490.883 327.172 490.449 327.125 490.027C327.102 489.816 327.066 489.43 327.02 488.867C326.973 488.281 326.926 487.672 326.879 487.039C326.855 486.406 326.82 485.809 326.773 485.246C326.75 484.684 326.738 484.297 326.738 484.086L325.93 483.664C325.789 483.594 325.543 483.652 325.191 483.84C324.863 484.027 324.477 484.285 324.031 484.613C323.586 484.941 323.117 485.316 322.625 485.738C322.133 486.16 321.664 486.559 321.219 486.934C320.797 487.309 320.434 487.637 320.129 487.918C319.824 488.199 319.637 488.375 319.566 488.445C319.379 488.633 319.039 488.973 318.547 489.465C318.055 489.934 317.527 490.449 316.965 491.012C316.426 491.551 315.91 492.066 315.418 492.559C314.949 493.051 314.621 493.402 314.434 493.613C314.105 493.684 313.789 493.719 313.484 493.719C313.203 493.695 312.98 493.52 312.816 493.191ZM325.93 507.5C325.719 507.172 325.73 506.656 325.965 505.953C326.176 505.273 326.492 504.559 326.914 503.809C327.312 503.082 327.734 502.391 328.18 501.734C328.602 501.102 328.918 500.645 329.129 500.363C329.316 500.105 329.609 499.719 330.008 499.203C330.383 498.688 330.816 498.102 331.309 497.445C331.801 496.789 332.316 496.098 332.855 495.371C333.418 494.645 333.945 493.965 334.438 493.332C334.93 492.676 335.375 492.09 335.773 491.574C336.172 491.059 336.465 490.672 336.652 490.414C336.84 490.203 336.84 489.875 336.652 489.43C336.465 488.984 336.172 488.469 335.773 487.883C335.398 487.273 334.965 486.617 334.473 485.914C334.004 485.188 333.57 484.461 333.172 483.734C332.797 482.984 332.504 482.246 332.293 481.52C332.105 480.793 332.105 480.113 332.293 479.48C332.551 479.293 332.832 479.41 333.137 479.832C333.441 480.23 333.758 480.793 334.086 481.52C334.438 482.223 334.801 483.008 335.176 483.875C335.551 484.719 335.914 485.492 336.266 486.195C336.617 486.875 336.957 487.414 337.285 487.812C337.637 488.211 337.965 488.293 338.27 488.059C338.879 487.613 339.477 487.051 340.062 486.371C340.648 485.668 341.211 484.941 341.75 484.191C342.289 483.441 342.793 482.715 343.262 482.012C343.754 481.285 344.211 480.652 344.633 480.113C344.797 479.902 344.949 479.762 345.09 479.691C345.254 479.598 345.5 479.609 345.828 479.727C346.086 479.82 346.039 480.23 345.688 480.957C345.336 481.684 344.785 482.621 344.035 483.77C343.285 484.918 342.383 486.23 341.328 487.707C340.297 489.16 339.195 490.684 338.023 492.277C336.875 493.848 335.715 495.418 334.543 496.988C333.395 498.559 332.34 500.012 331.379 501.348C330.395 502.707 329.562 503.891 328.883 504.898C328.18 505.93 327.723 506.68 327.512 507.148C327.418 507.359 327.324 507.57 327.23 507.781C327.113 507.992 326.961 508.168 326.773 508.309C326.727 508.285 326.668 508.238 326.598 508.168C326.504 508.098 326.422 508.016 326.352 507.922C326.258 507.852 326.176 507.77 326.105 507.676C326.012 507.605 325.953 507.547 325.93 507.5Z" fill="white"/>
<path d="M362.02 507.613C361.738 507.426 361.727 507.18 361.984 506.875C362.266 506.547 362.699 506.207 363.285 505.855C363.895 505.48 364.598 505.094 365.395 504.695C366.191 504.297 366.953 503.922 367.68 503.57C368.43 503.219 369.086 502.914 369.648 502.656C370.211 502.375 370.574 502.164 370.738 502.023C371.512 501.367 371.91 500.828 371.934 500.406C371.98 499.961 371.793 499.609 371.371 499.352C370.949 499.07 370.352 498.859 369.578 498.719C368.828 498.555 368.043 498.414 367.223 498.297C366.426 498.156 365.652 498.016 364.902 497.875C364.176 497.734 363.625 497.547 363.25 497.312C362.875 497.078 362.746 496.773 362.863 496.398C363.004 496 363.52 495.496 364.41 494.887C364.738 494.652 365.219 494.312 365.852 493.867C366.484 493.422 367.164 492.965 367.891 492.496C368.641 492.027 369.379 491.605 370.105 491.23C370.832 490.855 371.441 490.609 371.934 490.492C372.191 490.445 372.449 490.469 372.707 490.562C372.988 490.656 373.211 490.797 373.375 490.984C373.539 491.148 373.609 491.336 373.586 491.547C373.586 491.758 373.434 491.945 373.129 492.109C371.793 492.859 370.504 493.562 369.262 494.219C368.043 494.875 366.812 495.625 365.57 496.469C365.5 496.656 365.512 496.82 365.605 496.961C365.723 497.102 365.852 497.207 365.992 497.277C368.477 497.535 370.34 497.898 371.582 498.367C372.848 498.836 373.645 499.352 373.973 499.914C374.324 500.477 374.289 501.074 373.867 501.707C373.445 502.34 372.812 502.961 371.969 503.57C371.148 504.18 370.199 504.754 369.121 505.293C368.043 505.832 367 506.289 365.992 506.664C365.008 507.039 364.141 507.32 363.391 507.508C362.641 507.695 362.184 507.73 362.02 507.613ZM378.508 507.613C377.312 507.215 376.516 506.594 376.117 505.75C375.742 504.906 375.637 503.957 375.801 502.902C375.988 501.824 376.398 500.699 377.031 499.527C377.664 498.332 378.414 497.195 379.281 496.117C380.148 495.039 381.062 494.066 382.023 493.199C382.984 492.332 383.887 491.676 384.73 491.23C385.598 490.785 386.336 490.609 386.945 490.703C387.555 490.797 387.93 491.266 388.07 492.109C388.141 492.484 388.094 492.895 387.93 493.34C387.789 493.785 387.578 494.219 387.297 494.641C387.039 495.039 386.734 495.414 386.383 495.766C386.055 496.094 385.727 496.34 385.398 496.504C385.094 496.668 384.812 496.727 384.555 496.68C384.32 496.633 384.168 496.434 384.098 496.082C384.379 495.613 384.695 495.145 385.047 494.676C385.398 494.184 385.738 493.727 386.066 493.305C385.926 493.047 385.656 492.988 385.258 493.129C384.859 493.27 384.379 493.551 383.816 493.973C383.254 494.395 382.656 494.934 382.023 495.59C381.414 496.223 380.816 496.914 380.23 497.664C379.645 498.414 379.117 499.199 378.648 500.02C378.203 500.816 377.875 501.59 377.664 502.34C377.453 503.09 377.395 503.793 377.488 504.449C377.605 505.082 377.945 505.598 378.508 505.996C379.281 506.066 380.172 505.996 381.18 505.785C382.188 505.551 383.219 505.258 384.273 504.906C385.328 504.555 386.371 504.18 387.402 503.781C388.457 503.359 389.406 502.973 390.25 502.621C391.117 502.27 391.844 502 392.43 501.812C393.039 501.602 393.438 501.543 393.625 501.637C394.07 501.871 394.094 502.211 393.695 502.656C393.32 503.102 392.676 503.582 391.762 504.098C390.848 504.613 389.758 505.129 388.492 505.645C387.25 506.137 385.996 506.57 384.73 506.945C383.465 507.297 382.27 507.555 381.145 507.719C380.02 507.859 379.141 507.824 378.508 507.613ZM394.961 507.191C394.938 507.145 394.926 507.086 394.926 507.016C394.926 506.922 394.938 506.852 394.961 506.805C395.055 506.617 395.207 506.301 395.418 505.855C395.652 505.387 395.887 504.906 396.121 504.414C396.379 503.898 396.625 503.418 396.859 502.973C397.094 502.527 397.258 502.211 397.352 502.023C397.398 501.953 397.516 501.754 397.703 501.426C397.914 501.098 398.16 500.699 398.441 500.23C398.746 499.738 399.062 499.199 399.391 498.613C399.742 498.027 400.082 497.453 400.41 496.891C400.762 496.328 401.078 495.801 401.359 495.309C401.664 494.816 401.91 494.406 402.098 494.078C402.566 493.305 403.105 492.391 403.715 491.336C404.348 490.281 404.992 489.215 405.648 488.137C406.305 487.059 406.949 486.016 407.582 485.008C408.238 484 408.836 483.168 409.375 482.512C409.914 481.855 410.371 481.422 410.746 481.211C411.121 481 411.379 481.141 411.52 481.633V482.758C411.355 483.016 411.133 483.355 410.852 483.777C410.57 484.176 410.277 484.609 409.973 485.078C409.691 485.523 409.41 485.957 409.129 486.379C408.848 486.801 408.637 487.129 408.496 487.363C408.285 487.691 407.945 488.219 407.477 488.945C407.008 489.672 406.48 490.492 405.895 491.406C405.309 492.32 404.711 493.281 404.102 494.289C403.492 495.273 402.941 496.199 402.449 497.066C401.957 497.934 401.559 498.684 401.254 499.316C400.973 499.926 400.867 500.312 400.938 500.477C401.5 500.312 402.098 500.02 402.73 499.598C403.387 499.152 404.043 498.684 404.699 498.191C405.355 497.699 406.012 497.23 406.668 496.785C407.324 496.316 407.934 495.953 408.496 495.695C409.059 495.766 409.551 495.977 409.973 496.328C410.395 496.68 410.699 497.125 410.887 497.664C410.863 497.875 410.84 498.273 410.816 498.859C410.816 499.422 410.816 500.02 410.816 500.652C410.816 501.285 410.816 501.883 410.816 502.445C410.84 503.008 410.863 503.395 410.887 503.605C410.91 503.863 411.027 504.191 411.238 504.59C411.449 504.965 411.672 505.352 411.906 505.75C412.164 506.125 412.387 506.453 412.574 506.734C412.785 507.016 412.879 507.168 412.855 507.191C412.387 507.355 411.941 507.367 411.52 507.227C411.098 507.062 410.723 506.816 410.395 506.488C410.09 506.137 409.832 505.75 409.621 505.328C409.434 504.883 409.316 504.449 409.27 504.027C409.246 503.816 409.211 503.43 409.164 502.867C409.117 502.281 409.07 501.672 409.023 501.039C409 500.406 408.965 499.809 408.918 499.246C408.895 498.684 408.883 498.297 408.883 498.086L408.074 497.664C407.934 497.594 407.688 497.652 407.336 497.84C407.008 498.027 406.621 498.285 406.176 498.613C405.73 498.941 405.262 499.316 404.77 499.738C404.277 500.16 403.809 500.559 403.363 500.934C402.941 501.309 402.578 501.637 402.273 501.918C401.969 502.199 401.781 502.375 401.711 502.445C401.523 502.633 401.184 502.973 400.691 503.465C400.199 503.934 399.672 504.449 399.109 505.012C398.57 505.551 398.055 506.066 397.562 506.559C397.094 507.051 396.766 507.402 396.578 507.613C396.25 507.684 395.934 507.719 395.629 507.719C395.348 507.695 395.125 507.52 394.961 507.191ZM416.828 507.613C415.844 507.215 415.223 506.617 414.965 505.82C414.73 505.023 414.742 504.145 415 503.184C415.258 502.199 415.703 501.191 416.336 500.16C416.969 499.105 417.672 498.145 418.445 497.277C419.219 496.41 419.992 495.684 420.766 495.098C421.562 494.488 422.242 494.148 422.805 494.078C424.258 493.891 425.395 493.996 426.215 494.395C427.059 494.77 427.633 495.32 427.938 496.047C428.242 496.773 428.324 497.629 428.184 498.613C428.043 499.574 427.727 500.547 427.234 501.531C426.766 502.516 426.145 503.465 425.371 504.379C424.621 505.293 423.777 506.066 422.84 506.699C421.926 507.309 420.953 507.719 419.922 507.93C418.891 508.117 417.859 508.012 416.828 507.613ZM416.441 505.609C416.629 506.359 417.027 506.781 417.637 506.875C418.246 506.945 418.949 506.793 419.746 506.418C420.566 506.02 421.422 505.457 422.312 504.73C423.203 503.98 424.012 503.172 424.738 502.305C425.488 501.438 426.098 500.57 426.566 499.703C427.059 498.812 427.293 498.039 427.27 497.383C427.27 496.727 426.953 496.234 426.32 495.906C425.711 495.555 424.68 495.484 423.227 495.695C422.898 496 422.477 496.375 421.961 496.82C421.445 497.242 420.906 497.711 420.344 498.227C419.805 498.742 419.266 499.305 418.727 499.914C418.188 500.5 417.719 501.109 417.32 501.742C416.922 502.375 416.629 503.02 416.441 503.676C416.277 504.332 416.277 504.977 416.441 505.609ZM431.945 507.613C430.961 507.215 430.34 506.617 430.082 505.82C429.848 505.023 429.859 504.145 430.117 503.184C430.375 502.199 430.82 501.191 431.453 500.16C432.086 499.105 432.789 498.145 433.562 497.277C434.336 496.41 435.109 495.684 435.883 495.098C436.68 494.488 437.359 494.148 437.922 494.078C439.375 493.891 440.512 493.996 441.332 494.395C442.176 494.77 442.75 495.32 443.055 496.047C443.359 496.773 443.441 497.629 443.301 498.613C443.16 499.574 442.844 500.547 442.352 501.531C441.883 502.516 441.262 503.465 440.488 504.379C439.738 505.293 438.895 506.066 437.957 506.699C437.043 507.309 436.07 507.719 435.039 507.93C434.008 508.117 432.977 508.012 431.945 507.613ZM431.559 505.609C431.746 506.359 432.145 506.781 432.754 506.875C433.363 506.945 434.066 506.793 434.863 506.418C435.684 506.02 436.539 505.457 437.43 504.73C438.32 503.98 439.129 503.172 439.855 502.305C440.605 501.438 441.215 500.57 441.684 499.703C442.176 498.812 442.41 498.039 442.387 497.383C442.387 496.727 442.07 496.234 441.438 495.906C440.828 495.555 439.797 495.484 438.344 495.695C438.016 496 437.594 496.375 437.078 496.82C436.562 497.242 436.023 497.711 435.461 498.227C434.922 498.742 434.383 499.305 433.844 499.914C433.305 500.5 432.836 501.109 432.438 501.742C432.039 502.375 431.746 503.02 431.559 503.676C431.395 504.332 431.395 504.977 431.559 505.609ZM446.289 507.613C445.609 507.121 445.164 506.5 444.953 505.75C444.766 505 444.742 504.191 444.883 503.324C445.023 502.434 445.27 501.52 445.621 500.582C445.996 499.645 446.395 498.742 446.816 497.875C447.262 497.008 447.684 496.211 448.082 495.484C448.504 494.758 448.832 494.16 449.066 493.691C449.137 493.551 449.301 493.211 449.559 492.672C449.84 492.133 450.133 491.547 450.438 490.914C450.742 490.281 451.023 489.695 451.281 489.156C451.562 488.594 451.738 488.242 451.809 488.102C451.879 487.984 451.973 487.762 452.09 487.434C452.23 487.082 452.383 486.707 452.547 486.309C452.711 485.91 452.887 485.535 453.074 485.184C453.285 484.809 453.496 484.539 453.707 484.375C453.941 484.211 454.164 484.188 454.375 484.305C454.609 484.422 454.832 484.773 455.043 485.359C454.949 485.594 454.715 486.062 454.34 486.766C453.988 487.469 453.566 488.312 453.074 489.297C452.582 490.281 452.031 491.371 451.422 492.566C450.836 493.762 450.262 494.969 449.699 496.188C449.137 497.406 448.609 498.602 448.117 499.773C447.625 500.922 447.215 501.977 446.887 502.938C446.582 503.875 446.395 504.66 446.324 505.293C446.277 505.902 446.395 506.277 446.676 506.418C447.004 506.582 447.426 506.652 447.941 506.629C448.48 506.582 449.031 506.512 449.594 506.418C450.156 506.324 450.707 506.23 451.246 506.137C451.785 506.02 452.254 505.973 452.652 505.996C452.746 506.207 452.676 506.418 452.441 506.629C452.207 506.816 451.879 506.992 451.457 507.156C451.035 507.297 450.543 507.426 449.98 507.543C449.441 507.637 448.914 507.707 448.398 507.754C447.906 507.801 447.461 507.812 447.062 507.789C446.688 507.766 446.43 507.707 446.289 507.613Z" fill="white"/>
<defs>
<linearGradient id="paint0_linear_19_13" x1="446.5" y1="148.5" x2="350" y2="242.5" gradientUnits="userSpaceOnUse">
<stop offset="0.0456247" stop-color="#FFE600"/>
<stop offset="1" stop-color="white" stop-opacity="0.9"/>
</linearGradient>
<linearGradient id="paint1_linear_19_13" x1="287.5" y1="84.9267" x2="287.5" y2="207" gradientUnits="userSpaceOnUse">
<stop stop-color="#FF0000"/>
<stop offset="1" stop-color="white"/>
</linearGradient>
<linearGradient id="paint2_linear_19_13" x1="314" y1="278.5" x2="443" y2="348.5" gradientUnits="userSpaceOnUse">
<stop stop-color="white" stop-opacity="0.92"/>
<stop offset="1" stop-color="#00FF47"/>
</linearGradient>
<linearGradient id="paint3_linear_19_13" x1="262" y1="262" x2="229" y2="357" gradientUnits="userSpaceOnUse">
<stop stop-color="white" stop-opacity="0.87"/>
<stop offset="1" stop-color="#00D1FF"/>
</linearGradient>
<linearGradient id="paint4_linear_19_13" x1="157" y1="202" x2="282" y2="223" gradientUnits="userSpaceOnUse">
<stop stop-color="#6100FF"/>
<stop offset="0.907749" stop-color="white" stop-opacity="0.94"/>
</linearGradient>
</defs>
</svg>
